<svg width="400" height="400" viewBox="0 0 400 400" fill="none" xmlns="http://www.w3.org/2000/svg">
  <!-- Background gradient -->
  <rect width="400" height="400" rx="200" fill="url(#paint0_linear)"/>
  
  <!-- Abstract person silhouette -->
  <path d="M200 120C222.091 120 240 102.091 240 80C240 57.9086 222.091 40 200 40C177.909 40 160 57.9086 160 80C160 102.091 177.909 120 200 120Z" fill="#E6E6E6" fill-opacity="0.2"/>
  <path d="M120 320V280C120 246.863 146.863 220 180 220H220C253.137 220 280 246.863 280 280V320C280 353.137 253.137 380 220 380H180C146.863 380 120 353.137 120 320Z" fill="#E6E6E6" fill-opacity="0.2"/>
  
  <!-- Decorative elements -->
  <circle cx="200" cy="200" r="150" stroke="#2ECC71" stroke-width="2" stroke-opacity="0.3" stroke-dasharray="10 5" fill="none"/>
  
  <!-- Gradient definition -->
  <defs>
    <linearGradient id="paint0_linear" x1="0" y1="0" x2="400" y2="400" gradientUnits="userSpaceOnUse">
      <stop stop-color="#2C3E50"/>
      <stop offset="1" stop-color="#1A1A1A"/>
    </linearGradient>
  </defs>
</svg>